<svg width="20" height="21" viewBox="0 0 20 21" fill="none" xmlns="http://www.w3.org/2000/svg">
<path d="M3.03251 10.3614L7.23313 6.16142C7.6525 5.74142 7.6525 5.06142 7.23313 4.64142C6.81313 4.22142 6.13313 4.22142 5.71313 4.64142L0.769381 9.58517C0.554381 9.79892 0.450633 10.0808 0.454383 10.3602C0.450633 10.6402 0.554381 10.9202 0.769381 11.1345L5.71313 16.0783C6.13188 16.4977 6.81313 16.4977 7.23313 16.0783C7.65375 15.6583 7.6525 14.9783 7.23313 14.5583L3.03251 10.3614Z" fill="white"/>
<path d="M19.2312 9.36593L14.2875 4.42218C13.8675 4.00218 13.1875 4.00218 12.7669 4.42218C12.3469 4.84093 12.3469 5.52218 12.7669 5.94093L16.9669 10.1403L12.7669 14.3409C12.3469 14.7603 12.3469 15.4403 12.7669 15.8603C13.1856 16.2803 13.8662 16.2803 14.2875 15.8603L19.2312 10.9166C19.445 10.7028 19.55 10.4222 19.5462 10.1416C19.5481 9.8603 19.4431 9.57968 19.2312 9.36593Z" fill="white"/>
<path d="M10.15 16.3934C10.045 17.0321 9.44312 17.4652 8.80375 17.3602C8.16562 17.2552 7.73313 16.6515 7.83813 16.014L9.83063 3.88648C9.93563 3.24836 10.5388 2.81586 11.1763 2.92086C11.8144 3.02586 12.2469 3.62773 12.1419 4.26711L10.15 16.3934Z" fill="white"/>
</svg>
