<?xml version="1.0" ?><!DOCTYPE svg  PUBLIC '-//W3C//DTD SVG 1.1//EN'  'http://www.w3.org/Graphics/SVG/1.1/DTD/svg11.dtd'><svg height="512px" style="enable-background:new 0 0 512 512;" version="1.1" viewBox="0 0 512 512" width="512px" xml:space="preserve" xmlns="http://www.w3.org/2000/svg" xmlns:xlink="http://www.w3.org/1999/xlink"><g id="comp_x5F_142-github"><g><path d="M179.859,392.884c0,1.855-2.133,3.339-4.822,3.339c-3.062,0.277-5.193-1.205-5.193-3.339c0-1.854,2.132-3.34,4.823-3.34    C177.449,389.267,179.859,390.75,179.859,392.884z"/><path d="M151.017,388.709c-0.65,1.857,1.205,3.988,3.987,4.544c2.412,0.928,5.195,0,5.75-1.853    c0.558-1.856-1.205-3.988-3.987-4.824C154.355,385.929,151.667,386.855,151.017,388.709L151.017,388.709z"/><path d="M192.008,387.133c-2.689,0.65-4.543,2.411-4.267,4.544c0.279,1.854,2.691,3.063,5.473,2.413    c2.69-0.65,4.544-2.413,4.266-4.267C197.202,388.06,194.698,386.855,192.008,387.133z"/><path d="    M253.032,31.747c-128.633,0-227.031,97.656-227.031,226.291c0,102.851,64.733,190.862,157.197,221.839    c11.871,2.133,16.044-5.194,16.044-11.223c0-5.75-0.277-37.469-0.277-56.942c0,0-64.92,13.911-78.553-27.639    c0,0-30.186-37.116-45.396-44.072c0,0-21.238-20.278,1.485-20c0,0,42.707,2.323,55.412,24.395    c20.31,35.799,54.346,25.505,67.608,19.383c2.133-14.839,8.162-27.656,14.839-33.777c-51.842-5.75-104.149-0.784-104.149-90    c0-25.504,7.048-39.908,21.888-56.231c-2.411-6.028-10.294-30.882,2.412-62.972c19.383-6.028,63.99,25.041,63.99,25.041    c18.55-5.194,38.489-7.883,58.242-7.883c19.756,0,39.694,2.689,58.241,7.883c0,0,44.612-31.162,63.993-25.041    c12.705,32.181,4.823,56.944,2.412,62.972c14.84,16.416,23.927,30.819,23.927,56.231c0,89.496-54.625,99.537-106.466,105.379    c8.531,7.326,15.764,23.763,15.764,45.557c0,31.253-0.276,69.928-0.276,77.531c0,6.028,4.265,13.355,16.043,11.223    c92.742-30.79,155.62-118.802,155.62-221.652C485.999,129.403,381.665,31.747,253.032,31.747z" style="fill:none;stroke:#000000;stroke-width:20;stroke-linecap:round;stroke-linejoin:round;stroke-miterlimit:10;"/><path d="M116.146,351.614c-1.206,0.927-0.927,3.061,0.647,4.82c1.484,1.485,3.618,2.133,4.823,0.93    c1.206-0.93,0.927-3.061-0.649-4.823C119.485,351.057,117.352,350.408,116.146,351.614z"/><path d="M106.129,344.102c-0.648,1.205,0.278,2.688,2.133,3.616c1.484,0.929,3.339,0.649,3.988-0.649    c0.648-1.205-0.278-2.688-2.133-3.617C108.263,342.895,106.778,343.174,106.129,344.102z"/><path d="M136.178,377.116c-1.484,1.206-0.927,3.989,1.205,5.75c2.133,2.134,4.822,2.413,6.028,0.927    c1.205-1.204,0.649-3.987-1.206-5.748C140.165,375.912,137.383,375.633,136.178,377.116z"/><path d="M125.605,363.485c-1.484,0.926-1.484,3.337,0,5.47c1.485,2.134,3.989,3.061,5.194,2.134c1.483-1.206,1.483-3.617,0-5.75    C129.5,363.207,127.09,362.278,125.605,363.485L125.605,363.485z"/></g></g><g id="Layer_1"/></svg>