<svg width="30" height="29" viewBox="0 0 30 29" fill="none" xmlns="http://www.w3.org/2000/svg">
<g clip-path="url(#clip0)">
<path d="M8.99937 16.5022L7.57326 16.5222C6.33822 16.5383 5.31138 15.5477 5.28522 14.3127C5.27256 13.719 5.49192 13.1586 5.90211 12.7338C6.31231 12.309 6.86507 12.0703 7.45845 12.0618L12.7053 11.9909C13.7924 11.9766 15.6201 12.1745 15.6523 13.6649C15.6665 14.3494 16.2331 14.8921 16.9173 14.8778C17.6016 14.8638 18.1446 14.2972 18.13 13.613C18.076 11.0788 15.9339 9.46889 12.6716 9.5131L7.4244 9.58401C6.16515 9.60139 4.99154 10.1084 4.11905 11.0119C3.24656 11.9154 2.78095 13.1058 2.8077 14.3651C2.83544 15.6604 3.38746 16.8274 4.2566 17.6667C5.12592 18.5062 6.31183 19.0175 7.60803 19L9.03484 18.9804C9.71891 18.9709 10.2658 18.4085 10.2562 17.7239C10.2467 17.0402 9.68378 16.4928 8.99937 16.5022ZM27.093 14.0169C27.0349 11.2951 25.1635 9.34332 22.6436 9.37741L20.8663 9.40189C20.1818 9.41136 19.6349 9.97342 19.6445 10.658C19.6542 11.3426 20.2166 11.8895 20.901 11.8801L22.6775 11.8558C23.9834 11.8376 24.5913 12.955 24.6152 14.0697C24.6282 14.6637 24.4088 15.2244 23.9986 15.6492C23.5883 16.0742 23.0353 16.3128 22.4418 16.321L16.8442 16.3963C14.2845 16.4309 14.2592 15.2299 14.2483 14.7176C14.2339 14.0332 13.6676 13.4906 12.9833 13.5047C12.299 13.5187 11.756 14.0853 11.7706 14.7695C11.7955 15.9446 12.1953 16.9014 12.9134 17.5948C13.7926 18.4439 15.1489 18.8979 16.8785 18.8739L22.476 18.7987C23.7351 18.7811 24.9092 18.2742 25.7817 17.3707C26.6538 16.4676 27.1194 15.2765 27.093 14.0169Z" fill="white"/>
</g>
<defs>
<clipPath id="clip0">
<rect x="14.7531" width="20" height="20" transform="rotate(44 14.7531 0)" fill="white"/>
</clipPath>
</defs>
</svg>
