<?xml version="1.0" ?><!DOCTYPE svg  PUBLIC '-//W3C//DTD SVG 1.1//EN'  'http://www.w3.org/Graphics/SVG/1.1/DTD/svg11.dtd'><svg height="512px" style="enable-background:new 0 0 512 512;" version="1.1" viewBox="0 0 512 512" width="512px" xml:space="preserve" xmlns="http://www.w3.org/2000/svg" xmlns:xlink="http://www.w3.org/1999/xlink"><g id="comp_x5F_201-linkedin"><g><rect height="302.462" style="fill:none;stroke:#000000;stroke-width:20;stroke-linecap:round;stroke-linejoin:round;stroke-miterlimit:10;" width="98.117" x="36.623" y="173.51"/><path d="    M401.994,177.057c-1.043-0.326-2.029-0.684-3.123-0.992c-1.32-0.299-2.635-0.552-3.979-0.765    c-5.207-1.048-10.918-1.789-17.605-1.789c-57.199,0-93.486,41.715-105.434,57.824V173.51h-98.117v302.462h98.115V310.994    c0,0,74.145-103.554,105.436-27.5v192.478h98.09V271.864C475.377,226.163,444.141,188.082,401.994,177.057z" style="fill:none;stroke:#000000;stroke-width:20;stroke-linecap:round;stroke-linejoin:round;stroke-miterlimit:10;"/><path d="    M84.615,132.266c26.499,0,47.988-21.54,47.988-48.12c0-26.573-21.489-48.117-47.988-48.117c-26.503,0-47.992,21.544-47.992,48.117    C36.623,110.725,58.112,132.266,84.615,132.266z" style="fill:none;stroke:#000000;stroke-width:20;stroke-linecap:round;stroke-linejoin:round;stroke-miterlimit:10;"/></g></g><g id="Layer_1"/></svg>