<svg width="558" height="558" viewBox="0 0 558 558" fill="none" xmlns="http://www.w3.org/2000/svg">
<circle cx="279" cy="279" r="273.5" fill="white" stroke="black" stroke-width="11"/>
<path d="M153.985 174.176C155.408 161.59 158.691 149.331 164.273 137.62C174.452 116.387 190.103 100.407 211.337 89.9001C228.301 81.5819 246.251 77.7512 264.857 76.5472C266.061 76.4378 267.156 76.1094 268.36 76C275.255 76 282.151 76 289.046 76C297.145 77.0945 305.354 77.7512 313.344 79.2835C335.452 83.3331 355.372 92.0891 371.68 107.74C388.973 124.377 398.933 144.953 402.545 168.594C403.749 176.256 404.187 184.136 404.187 191.907C404.296 217.518 404.296 243.239 404.296 268.85" stroke="black" stroke-width="12" stroke-miterlimit="10" stroke-linecap="round" stroke-linejoin="round"/>
<path d="M404.406 288.879C404.406 289.646 404.406 288.223 404.406 288.879" stroke="black" stroke-width="12" stroke-miterlimit="10" stroke-linecap="round" stroke-linejoin="round"/>
<path d="M404.406 309.018C404.406 329.157 404.406 349.186 404.406 369.325C404.406 387.603 401.122 405.115 393.242 421.642C383.063 442.765 367.631 458.745 346.397 469.033C322.209 480.854 296.379 483.809 269.783 482.824C249.644 482.058 230.052 478.336 211.774 469.471C186.82 457.322 169.965 437.95 160.224 412.12C154.97 398.11 153 383.444 153 368.449C153 311.754 153 255.059 153 198.474" stroke="black" stroke-width="12" stroke-miterlimit="10" stroke-linecap="round" stroke-linejoin="round"/>
<path d="M262.121 182.932C262.121 188.733 262.012 194.534 262.121 200.444C262.34 210.404 269.235 217.628 278.539 217.737C288.061 217.847 295.284 210.623 295.394 200.444C295.503 189.061 295.503 177.679 295.394 166.296C295.284 156.336 288.28 149.112 278.976 149.003C269.454 148.893 262.34 156.227 262.121 166.296C262.012 171.878 262.121 177.35 262.121 182.932Z" stroke="black" stroke-width="12" stroke-miterlimit="10"/>
</svg>
